<?xml version="1.0" encoding="utf-8"?>
<!-- Generator: Adobe Illustrator 21.1.0, SVG Export Plug-In . SVG Version: 6.00 Build 0)  -->
<svg version="1.1" id="Capa_1" xmlns="http://www.w3.org/2000/svg" xmlns:xlink="http://www.w3.org/1999/xlink" x="0px" y="0px"
	 viewBox="0 0 512 512" style="enable-background:new 0 0 512 512;" xml:space="preserve">
<style type="text/css">
	.st0{fill:#FFFFFF;}
</style>
<path class="st0" d="M512,256c0-8-6.5-14.5-14.5-14.5h-13.3l13.9-13.9c5.7-5.7,5.7-14.8,0-20.5c-5.7-5.7-14.8-5.7-20.5,0l-34.4,34.4
	h-36.3l13.9-13.9c5.7-5.7,5.7-14.8,0-20.5c-5.7-5.7-14.8-5.7-20.5,0l-34.4,34.4H291l96.6-96.6h52c8,0,14.5-6.5,14.5-14.5
	s-6.5-14.5-14.5-14.5h-23l23.6-23.6c5.7-5.7,5.7-14.8,0-20.5c-5.7-5.7-14.8-5.7-20.5,0l-23.6,23.6v-23c0-8-6.5-14.5-14.5-14.5
	c-8,0-14.5,6.5-14.5,14.5v52L270.5,221v-74.9l34.4-34.4c5.7-5.7,5.7-14.8,0-20.5c-5.7-5.7-14.8-5.7-20.5,0l-13.9,13.9V68.8
	l34.4-34.4c5.7-5.7,5.7-14.8,0-20.5c-5.7-5.7-14.8-5.7-20.5,0l-13.9,13.9V14.5C270.5,6.5,264,0,256,0s-14.5,6.5-14.5,14.5v13.3
	l-13.9-13.9c-5.7-5.7-14.8-5.7-20.5,0s-5.7,14.8,0,20.5l34.4,34.4v36.3l-13.9-13.9c-5.7-5.7-14.8-5.7-20.5,0
	c-5.7,5.7-5.7,14.8,0,20.5l34.4,34.4V221l-96.6-96.6v-52c0-8-6.5-14.5-14.5-14.5s-14.5,6.5-14.5,14.5v23L92.4,71.9
	c-5.7-5.7-14.8-5.7-20.5,0c-5.7,5.7-5.7,14.8,0,20.5l23.6,23.6h-23c-8,0-14.5,6.5-14.5,14.5s6.5,14.5,14.5,14.5h52l96.6,96.6h-74.9
	l-34.4-34.4c-5.7-5.7-14.8-5.7-20.5,0s-5.7,14.8,0,20.5l13.9,13.9H68.8l-34.4-34.4c-5.7-5.7-14.8-5.7-20.5,0s-5.7,14.8,0,20.5
	l13.9,13.9H14.5C6.5,241.5,0,248,0,256s6.5,14.5,14.5,14.5h13.3l-13.9,13.9c-5.7,5.7-5.7,14.8,0,20.5c2.8,2.8,6.5,4.3,10.2,4.3
	s7.4-1.4,10.2-4.2l34.4-34.4h36.3l-13.9,13.9c-5.7,5.7-5.7,14.8,0,20.5c2.8,2.8,6.5,4.3,10.2,4.3c3.7,0,7.4-1.4,10.2-4.2l34.4-34.4
	H221l-96.6,96.6h-52c-8,0-14.5,6.5-14.5,14.5c0,8,6.5,14.5,14.5,14.5h23l-23.6,23.6c-5.7,5.7-5.7,14.8,0,20.5
	c2.8,2.8,6.5,4.3,10.2,4.3c3.7,0,7.4-1.4,10.2-4.2l23.6-23.6v23c0,8,6.5,14.5,14.5,14.5s14.5-6.5,14.5-14.5v-52l96.6-96.6v74.9
	l-34.4,34.4c-5.7,5.7-5.7,14.8,0,20.5c2.8,2.8,6.5,4.2,10.2,4.2s7.4-1.4,10.2-4.2l13.9-13.9v36.3l-34.4,34.4
	c-5.7,5.7-5.7,14.8,0,20.5c2.8,2.8,6.5,4.2,10.2,4.2s7.4-1.4,10.2-4.2l13.9-13.9v13.3c0,8,6.5,14.5,14.5,14.5s14.5-6.5,14.5-14.5
	v-13.3l13.9,13.9c2.8,2.8,6.5,4.3,10.2,4.3s7.4-1.4,10.2-4.2c5.7-5.7,5.7-14.8,0-20.5l-34.4-34.4v-36.3l13.9,13.9
	c2.8,2.8,6.5,4.3,10.2,4.3s7.4-1.4,10.2-4.2c5.7-5.7,5.7-14.8,0-20.5l-34.4-34.4V291l96.6,96.6v52c0,8,6.5,14.5,14.5,14.5
	c8,0,14.5-6.5,14.5-14.5v-23l23.6,23.6c2.8,2.8,6.5,4.3,10.2,4.3c3.7,0,7.4-1.4,10.2-4.2c5.7-5.7,5.7-14.8,0-20.5l-23.6-23.6h23
	c8,0,14.5-6.5,14.5-14.5c0-8-6.5-14.5-14.5-14.5h-52L291,270.5h74.9l34.4,34.4c2.8,2.8,6.5,4.2,10.2,4.2s7.4-1.4,10.2-4.2
	c5.7-5.7,5.7-14.8,0-20.5l-13.9-13.9h36.3l34.4,34.4c2.8,2.8,6.5,4.2,10.2,4.2s7.4-1.4,10.2-4.2c5.7-5.7,5.7-14.8,0-20.5l-13.9-13.9
	h13.3C505.5,270.5,512,264,512,256z"/>
</svg>
